<svg xmlns="http://www.w3.org/2000/svg" viewBox="0 0 508.9 207.15"><defs><style>.cls-1{fill:#2e6eff;stroke:#2e6eff;stroke-miterlimit:10;stroke-width:3px;opacity:0.7;}.cls-2{font-size:31.78px;fill:#fff;font-family:Montserrat-Regular, Montserrat;}.cls-3{letter-spacing:-0.05em;}.cls-4{letter-spacing:-0.02em;}.cls-5{letter-spacing:0em;}.cls-6{letter-spacing:-0.01em;}.cls-7{letter-spacing:-0.01em;}.cls-8{letter-spacing:-0.05em;}.cls-9{letter-spacing:-0.01em;}.cls-10{letter-spacing:0.03em;}.cls-11{letter-spacing:0em;}.cls-12{letter-spacing:-0.01em;}</style></defs><title>auto-reply</title><g id="Layer_2" data-name="Layer 2"><g id="Layer_1-2" data-name="Layer 1"><path class="cls-1" d="M19.88,183.64c0-16.72,0-23.31,0-23.31h0q0-1.17,0-2.35V49C19.88,22.78,36,1.5,56,1.5H471.31c19.94,0,36.1,21.28,36.1,47.53V158c0,26.25-16.16,47.53-36.1,47.53H56c-8.31,0-16-3.7-22.05-9.92h0S23.23,207,6.54,205.51C6.54,205.51,19.88,200.36,19.88,183.64Z"/><text class="cls-2" transform="translate(52.63 50.31)"><tspan class="cls-3">T</tspan><tspan x="16.72" y="0">hank </tspan><tspan class="cls-4" x="104.78" y="0">y</tspan><tspan class="cls-5" x="121.03" y="0">ou </tspan><tspan class="cls-6" x="169.84" y="0">f</tspan><tspan x="180.43" y="0">or </tspan><tspan class="cls-7" x="221.01" y="0">C</tspan><tspan x="242.69" y="0">ONFIRMING</tspan><tspan class="cls-8" x="0" y="43.37">W</tspan><tspan x="31.21" y="43.37">e look </tspan><tspan class="cls-9" x="134.31" y="43.37">f</tspan><tspan class="cls-5" x="144.89" y="43.37">o</tspan><tspan class="cls-10" x="164.76" y="43.37">r</tspan><tspan class="cls-7" x="178.11" y="43.37">w</tspan><tspan class="cls-11" x="206.01" y="43.37">ard </tspan><tspan class="cls-12" x="267.03" y="43.37">t</tspan><tspan class="cls-5" x="279.78" y="43.37">o seeing</tspan><tspan class="cls-4" x="0" y="86.75">y</tspan><tspan x="16.24" y="86.75">ou. Questions? Please Call:</tspan><tspan x="0" y="130.12">9498873031</tspan></text></g></g></svg>