<svg xmlns="http://www.w3.org/2000/svg" viewBox="0 0 100 100"><defs><style>.cls-1{fill:#e37948;}.cls-2{fill:#34495e;}.cls-3{fill:#ecf0f1;}.cls-4{fill:#d4d8d9;}.cls-5{fill:#e74c3c;}.cls-6{fill:#fff;}.cls-7{fill:#2c3e50;}</style></defs><title>bellicon</title><g id="Layer_2" data-name="Layer 2"><g id="Layer_1-2" data-name="Layer 1"><path class="cls-1" d="M50,0A50,50,0,1,1,0,50,50,50,0,0,1,50,0Z"/><path class="cls-2" d="M89.86,19.82c-.64-.84-1.31-1.66-2-2.45A9,9,0,1,1,74.12,6.2q-1.39-.76-2.82-1.44a12,12,0,0,0,1.75,18A32,32,0,0,0,85.11,85.59a50,50,0,0,0,8.1-60.73A31.74,31.74,0,0,0,87,22.77,12.11,12.11,0,0,0,89.86,19.82Z"/><path class="cls-3" d="M100,50a50,50,0,0,0-2.31-15A26,26,0,1,0,92,77,49.75,49.75,0,0,0,100,50Z"/><path class="cls-4" d="M98.48,37.72q-.35-1.4-.78-2.77A26,26,0,0,0,54,54c0,.33,0,.67,0,1A26,26,0,0,1,98.48,37.72Z"/><path class="cls-5" d="M82,50.56V36a2,2,0,0,0-4,0V50.56a4,4,0,1,0,4,0Z"/><path class="cls-6" d="M24,35H44a2,2,0,0,0,0-4H24a2,2,0,0,0,0,4ZM14,45H34a2,2,0,0,0,0-4H14a2,2,0,0,0,0,4ZM36,63a2,2,0,0,0-2-2H14a2,2,0,0,0,0,4H34A2,2,0,0,0,36,63Zm9,8H25a2,2,0,0,0,0,4H45a2,2,0,0,0,0-4ZM17,51a2,2,0,0,0,0,4H39a2,2,0,0,0,0-4Z"/><path class="cls-7" d="M83,14H77v7.48a8.87,8.87,0,0,0,6,0Z"/><path class="cls-2" d="M85.71,15A50.3,50.3,0,0,0,80,10H76a2,2,0,0,0-2,2v2a2,2,0,0,0,2,2h8A2,2,0,0,0,85.71,15Z"/></g></g></svg>