<svg xmlns="http://www.w3.org/2000/svg" viewBox="0 0 337.56 108.17"><defs><style>.cls-1{fill:#63ea0c;}.cls-2{font-size:68.27px;fill:#fff;font-family:MyriadPro-Regular, Myriad Pro;}.cls-3{letter-spacing:-0.01em;}.cls-4{letter-spacing:-0.01em;}</style></defs><title>canceltext</title><g id="Layer_2" data-name="Layer 2"><g id="Layer_1-2" data-name="Layer 1"><path class="cls-1" d="M319.72,84.36c0-18.09-.06-25.23-.06-25.23h0q.06-1.26.06-2.55V51.43C319.72,23,298.12,0,271.48,0H48.25C21.6,0,0,23,0,51.43v5.16C0,85,21.6,108,48.25,108H271.48A46.16,46.16,0,0,0,301,97.29h0A53.33,53.33,0,0,0,337.56,108S319.72,102.45,319.72,84.36Z"/><text class="cls-2" transform="translate(61.89 72.66)"><tspan class="cls-3">C</tspan><tspan x="39.12" y="0">an</tspan><tspan class="cls-4" x="109.92" y="0">c</tspan><tspan x="140.09" y="0">el</tspan></text></g></g></svg>