<svg xmlns="http://www.w3.org/2000/svg" viewBox="0 0 188.57 60.43"><defs><style>.cls-1{fill:#f97878;opacity:0.87;}.cls-2{font-size:31.78px;fill:#fff;font-family:Montserrat-Regular, Montserrat;}.cls-3{letter-spacing:-0.02em;}.cls-4{letter-spacing:0em;}</style></defs><title>cancel</title><g id="Layer_2" data-name="Layer 2"><g id="Layer_1-2" data-name="Layer 1"><path class="cls-1" d="M178.61,47.13c0-10.11,0-14.09,0-14.09h0q0-.71,0-1.42V28.73c0-15.87-12.07-28.73-27-28.73H27C12.07,0,0,12.86,0,28.73v2.88C0,47.48,12.07,60.35,27,60.35h124.7a25.79,25.79,0,0,0,16.47-6h0a29.79,29.79,0,0,0,20.44,6S178.61,57.23,178.61,47.13Z"/><text class="cls-2" transform="translate(35.24 40.59)">Can<tspan class="cls-3" x="61.85" y="0">c</tspan><tspan class="cls-4" x="79.11" y="0">el</tspan></text></g></g></svg>