<svg xmlns="http://www.w3.org/2000/svg" viewBox="0 0 885.18 314.64"><defs><style>.cls-1{fill:#e6e6e6;}.cls-2{font-size:56.89px;font-family:HelveticaNeue, Helvetica Neue;}.cls-3{letter-spacing:-0.06em;}.cls-4{letter-spacing:-0.02em;}.cls-5{font-size:51.54px;fill:#3380c2;}</style></defs><title>confirmreminder</title><g id="Layer_2" data-name="Layer 2"><g id="Layer_1-2" data-name="Layer 1"><path class="cls-1" d="M23.58,280.73c0-25.77.07-35.93.07-35.93h0q-.07-1.8-.07-3.62V73.25C23.58,32.8,52.14,0,87.37,0h734c35.23,0,63.79,32.8,63.79,73.25V241.18c0,40.46-28.56,73.25-63.79,73.25h-734c-14.68,0-28.19-5.71-39-15.28h0S29.51,316.76,0,314.43C0,314.43,23.58,306.49,23.58,280.73Z"/><text class="cls-2" transform="translate(72.8 72.98)">Thank you for CONFIRMING.<tspan class="cls-3" x="0" y="68.27">W</tspan><tspan x="49.44" y="68.27">e look forwa</tspan><tspan class="cls-4" x="361.2" y="68.27">r</tspan><tspan x="379.12" y="68.27">d to seeing you.</tspan><tspan x="0" y="136.54">Questions? Please Call </tspan><tspan class="cls-5"><tspan x="0" y="198.39">9498873031</tspan></tspan></text></g></g></svg>