<svg xmlns="http://www.w3.org/2000/svg" viewBox="0 0 883.1 370.08"><defs><style>.cls-1{fill:#e6e6e6;}.cls-2,.cls-3,.cls-4,.cls-5,.cls-6{isolation:isolate;}.cls-3,.cls-4,.cls-5,.cls-6{font-size:51.54px;font-family:HelveticaNeue, Helvetica Neue;}.cls-4{letter-spacing:-0.09em;}.cls-5{letter-spacing:-0.02em;}.cls-6{fill:#3380c2;}</style></defs><title>docrem</title><g id="Layer_2" data-name="Layer 2"><g id="Layer_1-2" data-name="Layer 1"><g id="Layer_2-2" data-name="Layer 2"><g id="Layer_1-2-2" data-name="Layer 1-2"><path class="cls-1" d="M23.52,330.2c0-30.31.08-42.26.08-42.26h0q-.08-2.12-.08-4.26V86.16C23.52,38.58,52,0,87.16,0h732.3C854.6,0,883.1,38.58,883.1,86.16V283.68c0,47.59-28.5,86.15-63.64,86.15H87.16c-14.64,0-28.12-6.71-38.88-18h0S29.44,372.59,0,369.83C0,369.83,23.52,360.5,23.52,330.2Z"/><g class="cls-2"><text class="cls-3" transform="translate(71.49 78.27)">Hi Sarah, this is D</text><text class="cls-4" transform="translate(481.95 78.27)">r</text><text class="cls-3" transform="translate(494.37 78.27)">. John</text><text class="cls-3" transform="translate(71.49 140.12)">confirming your appointment </text><text class="cls-4" transform="translate(750.32 140.12)">T</text><text class="cls-3" transform="translate(775.16 140.12)">ue.</text><text class="cls-3" transform="translate(71.49 201.97)">Mar 14 at 11:00, Please </text><text class="cls-5" transform="translate(631.01 201.97)">r</text><text class="cls-3" transform="translate(647.24 201.97)">eply</text><text class="cls-3" transform="translate(71.49 263.81)">&quot;Confirm&quot; or &quot;Cancel&quot;. </text><text class="cls-3" transform="translate(71.49 325.66)">Questions? Call </text><text class="cls-6" transform="translate(449.53 325.66)">9498873031</text></g></g></g></g></g></svg>