<svg xmlns="http://www.w3.org/2000/svg" viewBox="0 0 883.1 370.09"><defs><style>.cls-1{fill:#e6e6e6;}.cls-2{font-size:51.54px;font-family:HelveticaNeue, Helvetica Neue;}.cls-3{letter-spacing:-0.09em;}.cls-4{letter-spacing:-0.09em;}.cls-5{letter-spacing:-0.02em;}.cls-6{fill:#3380c2;letter-spacing:0em;}</style></defs><title>doctorreminder</title><g id="Layer_2" data-name="Layer 2"><g id="Layer_1-2" data-name="Layer 1"><path class="cls-1" d="M23.52,330.2c0-30.31.08-42.26.08-42.26h0q-.08-2.12-.08-4.26V86.16C23.52,38.58,52,0,87.16,0h732.3C854.6,0,883.1,38.58,883.1,86.16V283.68c0,47.59-28.5,86.15-63.64,86.15H87.16c-14.64,0-28.12-6.71-38.88-18h0S29.44,372.59,0,369.83C0,369.83,23.52,360.5,23.52,330.2Z"/><text class="cls-2" transform="translate(71.49 78.27)">Hi Sarah, this is D<tspan class="cls-3" x="410.46" y="0">r</tspan><tspan x="422.88" y="0">. John</tspan><tspan x="0" y="61.85">confirming your appointment </tspan><tspan class="cls-4" x="678.83" y="61.85">T</tspan><tspan x="703.67" y="61.85">ue.</tspan><tspan x="0" y="123.7">Mar 14 at 11:00, Please </tspan><tspan class="cls-5" x="559.52" y="123.7">r</tspan><tspan x="575.75" y="123.7">eply</tspan><tspan x="0" y="185.54">&quot;Confirm&quot; or &quot;Cancel&quot;. </tspan><tspan x="0" y="247.39">Questions? Call </tspan><tspan class="cls-6" x="378.04" y="247.39">9498873031</tspan></text></g></g></svg>