<svg xmlns="http://www.w3.org/2000/svg" viewBox="0 0 6.51 7"><defs><style>.cls-1{fill:#1d1d1b;}</style></defs><title>firstplace</title><g id="Layer_2" data-name="Layer 2"><g id="Icons"><path class="cls-1" d="M6.5,5.94A10.09,10.09,0,0,0,5.17,3.44v0a1.88,1.88,0,0,0,.08-2.2A2,2,0,0,0,4.71.54h0A2,2,0,0,0,3.16,0H3.07A1.94,1.94,0,0,0,1.25,1.2a2,2,0,0,0,.06,2.09.12.12,0,0,0,0,.07A2.89,2.89,0,0,1,.76,4.64C.5,5.09.32,5.57,0,6a.14.14,0,0,0,.19.19c.23-.14,1-.39,1.24-.15a3.63,3.63,0,0,1,.47.78c0,.09.2.12.24,0,.18-.48.39-1,.6-1.43.12-.28.28-.52.38-.8.1.33.23.65.35,1s.26.9.4,1.35a.13.13,0,0,0,.22,0,11.92,11.92,0,0,0,1-1.09h0c.35.15.75.19,1.11.31a.13.13,0,0,0,.14,0A.14.14,0,0,0,6.5,5.94Zm-4-.47c-.14.33-.29.66-.42,1a1.67,1.67,0,0,0-.64-.79c-.19-.1-.48,0-.67.08L.47,5.8c.16-.3.3-.61.47-.91a4.25,4.25,0,0,0,.59-1.3A2.37,2.37,0,0,0,2.08,4a1.69,1.69,0,0,0,.6.25h0l.25,0A5.49,5.49,0,0,1,2.45,5.47ZM3,4.11,2.72,4a5.47,5.47,0,0,1-1-.65l-.14-.15a.08.08,0,0,0,0,0,3.39,3.39,0,0,1-.19-1.65A2.28,2.28,0,0,1,1.87.91,2.27,2.27,0,0,1,2.76.34,2.5,2.5,0,0,1,3.2.3,1.91,1.91,0,0,1,5.26,2.14,2.16,2.16,0,0,1,5,3.22a1.5,1.5,0,0,1-.18.21A2.61,2.61,0,0,1,3,4.11ZM5.13,5.64h0a.12.12,0,0,0-.17,0,7.23,7.23,0,0,1-.84.94C4,6.33,3.93,6,3.84,5.77c-.15-.46-.37-.9-.5-1.37l.29,0a1.67,1.67,0,0,0,1.46-.84c.35.77.79,1.49,1.1,2.28C5.85,5.73,5.47,5.75,5.13,5.64Z"/><path class="cls-1" d="M3.86,2.78l-.33.05a9,9,0,0,0,0-1.76.15.15,0,0,0-.29,0l0,.45a1.62,1.62,0,0,1-.31,0,.16.16,0,0,0,0,.33h.29a5.81,5.81,0,0,0,0,1l-.31,0a.15.15,0,0,0,0,.29,4.31,4.31,0,0,0,1.08,0A.21.21,0,1,0,3.86,2.78Z"/></g></g></svg>