<svg xmlns="http://www.w3.org/2000/svg" viewBox="0 0 7.12 6.98"><defs><style>.cls-1{fill:#1d1d1b;}</style></defs><title>freedom</title><g id="Layer_2" data-name="Layer 2"><g id="Icons"><path class="cls-1" d="M7.1,1.73a1.68,1.68,0,0,0-.31-.39L6.48,1A.11.11,0,0,0,6.4.89,12.84,12.84,0,0,0,4,.89H4C4,.7,4,.51,4,.32v0a.12.12,0,0,0,0,0C3.91,0,3.52,0,3.31,0a.68.68,0,0,0-.57.21.06.06,0,0,0-.08,0,4.7,4.7,0,0,0-.11.67C2.05.93,1.54.85,1,.86a.13.13,0,0,0-.1.05h0a1,1,0,0,0-.46.39c-.15.18-.27.38-.43.54a.05.05,0,0,0,0,.08A.1.1,0,0,0,0,2c.35.26.63.62,1,.86H1l0,0A10.48,10.48,0,0,0,2.56,3c0,.14,0,.28,0,.41a28.34,28.34,0,0,0,.06,3.28.1.1,0,0,0,0,.15l.17,0,0,0A2.33,2.33,0,0,0,3.69,7a.34.34,0,0,0,.18-.1h0l.05,0,0,0a.06.06,0,0,0,0,0,13.9,13.9,0,0,0,.08-2.11l.42,0a1.2,1.2,0,0,0,.41,0,.07.07,0,0,0,.08,0l0,0a.05.05,0,0,0,0-.06,2.66,2.66,0,0,1,.34-.28c.1-.07.29-.16.31-.29a.09.09,0,0,0-.08-.11h0a.93.93,0,0,0-.15-.22l-.26-.33a.12.12,0,0,0-.11-.13c-.33,0-.67.06-1,0,0-.1,0-.2,0-.3.31,0,.61-.09.92-.1a10,10,0,0,1,1.23,0,.13.13,0,0,0,.14-.13c.23-.28.45-.58.7-.84A.13.13,0,0,0,7.1,1.73ZM1.18,2.8a.09.09,0,0,0,0-.05C.81,2.47.5,2.16.14,1.9A6.17,6.17,0,0,1,1,1.1a.14.14,0,0,0,.08,0l1.51.08c0,.51,0,1,0,1.55A9,9,0,0,0,1.18,2.8ZM3.76.41l0,0a3.38,3.38,0,0,1-.44,0H2.84l0-.12A.82.82,0,0,1,3.76.41Zm0,3.21c0,.88-.05,1.82,0,2.71a.42.42,0,0,0-.05.22.38.38,0,0,0-.16.08l0,0h-.6a.11.11,0,0,0-.07,0h0a28.75,28.75,0,0,0,.06-3.26,18.84,18.84,0,0,0,0-2.75,2.58,2.58,0,0,0,.93,0C3.72,1.62,3.76,2.62,3.76,3.62ZM5,3.44l.21.29c.06.08.1.18.17.26l-.14.13a2.35,2.35,0,0,0-.4.38H4.41a1.31,1.31,0,0,0-.35,0c0-.31,0-.62,0-.92,0-.06,0-.12,0-.18A2.74,2.74,0,0,0,5,3.44Zm1.16-.87c-.39,0-.79,0-1.19,0a7.51,7.51,0,0,0-.91.1c0-.52,0-1,0-1.56a14.5,14.5,0,0,0,2.23,0l.32.35c.09.1.16.23.25.33A8.47,8.47,0,0,0,6.16,2.57Z"/></g></g></svg>