<svg xmlns="http://www.w3.org/2000/svg" viewBox="0 0 100 100"><defs><style>.cls-1{fill:#324d5b;}.cls-2{fill:#2b424d;}.cls-3{fill:#da9c44;}.cls-4{fill:#f3f3f3;}.cls-5{fill:#26a6d1;}.cls-6{fill:#e2574c;}.cls-7{fill:#dfe1e2;}.cls-8{fill:#f4b459;}.cls-9{fill:#f6c37a;}</style></defs><title>lettericon</title><g id="Layer_2" data-name="Layer 2"><g id="Layer_1-2" data-name="Layer 1"><path class="cls-1" d="M50,0a50,50,0,1,0,50,50A50,50,0,0,0,50,0Z"/><path class="cls-2" d="M19,83V27L.19,45.81C.07,47.19,0,48.59,0,50A49.8,49.8,0,0,0,12.45,83H19Z"/><path class="cls-3" d="M89,81.27V57L50,38,11,57V81.27a50,50,0,0,0,78,0Z"/><path class="cls-4" d="M19,27H82a2,2,0,0,1,2,2V75a2,2,0,0,1-2,2H19a2,2,0,0,1-2-2V29A2,2,0,0,1,19,27Z"/><path class="cls-5" d="M38,32h7l4-5H42Zm30-5-4,5h7l4-5ZM17,29v3h3l4-5H19A2,2,0,0,0,17,29Z"/><path class="cls-6" d="M51,32h7l4-5H55ZM25,32h7l4-5H29Zm57-5H81l-4,5h7V29A2,2,0,0,0,82,27Z"/><path class="cls-7" d="M73.5,47h-17a1.5,1.5,0,0,0,0,3h17a1.5,1.5,0,0,0,0-3Zm-3,6h-14a1.5,1.5,0,1,0,0,3h14a1.5,1.5,0,1,0,0-3ZM39,49l.68,3.58L34,44,26,56c0,1.1,5.15,2,11.5,2S49,57.1,49,56L42,46Zm1-5a2,2,0,1,0-2-2A2,2,0,0,0,40,44Zm16.5,0h17a1.5,1.5,0,0,0,0-3h-17a1.5,1.5,0,0,0,0,3Z"/><path class="cls-8" d="M89,81.27V57L50,76,11,57V81.27a50,50,0,0,0,78,0Z"/><path class="cls-9" d="M89,57,20.59,90.43A49.76,49.76,0,0,0,50,100h0A49.89,49.89,0,0,0,89,81.27Z"/></g></g></svg>