<svg xmlns="http://www.w3.org/2000/svg" xmlns:xlink="http://www.w3.org/1999/xlink" viewBox="0 0 129.48 136.66"><defs><style>.cls-1{fill:none;}.cls-2{fill:#f4f0d3;}.cls-3{clip-path:url(#clip-path);}.cls-4{fill:#efc75e;}.cls-5{fill:#ccc7a5;}.cls-6{fill:#dad5b1;}.cls-7{fill:#e4dfbd;}.cls-8{fill:#e2574c;}.cls-9{fill:#fff;}</style><clipPath id="clip-path"><circle class="cls-1" cx="52.48" cy="70.83" r="50"/></clipPath></defs><title>mapicon</title><g id="Layer_2" data-name="Layer 2"><g id="Layer_1-2" data-name="Layer 1"><path class="cls-2" d="M52.48,20.83a50,50,0,1,1-50,50A50,50,0,0,1,52.48,20.83Z"/><g class="cls-3"><path class="cls-4" d="M102,106.14,46.15,50.32,90.81,5.66,85.16,0,40.49,44.66,5.67,9.84,0,15.52,67.82,83.34,20.16,131l5.66,5.66L73.48,89l22.82,22.82Z"/><path class="cls-5" d="M65.49,54.7V41.84L92.48,68l0,12.83Z"/><path class="cls-6" d="M129.48,43.81l-.06-13-36.94,37v13Z"/><path class="cls-7" d="M65.39,41.85,97.57,9.18l27,27.56-32.09,32Z"/><path class="cls-8" d="M40.49,41.82a19,19,0,0,1,19,18.91,24.24,24.24,0,0,1-1.73,8.53C53.07,80,40.5,91.9,40.49,91.84S27.95,80.05,23.25,69.32c-1.4-2.54-1.75-8.18-1.75-8.59A19,19,0,0,1,40.49,41.82Z"/><path class="cls-9" d="M40.48,50.83a10,10,0,1,0,10,10A10,10,0,0,0,40.48,50.83Zm0,16a6,6,0,1,1,6-6A6,6,0,0,1,40.48,66.83Z"/></g></g></g></svg>