<svg xmlns="http://www.w3.org/2000/svg" viewBox="0 0 25.61 23.37"><defs><style>.cls-1{fill:#1d1d1b;}</style></defs><title>scale</title><g id="Layer_2" data-name="Layer 2"><g id="Icons"><path class="cls-1" d="M25.12,17.51a.33.33,0,0,0-.48,0h-.29c-.82-1.71-1.41-3.59-2.19-5.34a25.91,25.91,0,0,0-2.71-5,15.67,15.67,0,0,0,1.74-.22.33.33,0,0,0,.22-.14A1.59,1.59,0,0,0,22,5.78a6.24,6.24,0,0,0,0-1.56.37.37,0,0,0-.26-.35.34.34,0,0,0-.23-.1c-2.64-.13-5.3-.05-8,0a1.77,1.77,0,0,0,.92-1.45A2.17,2.17,0,0,0,11.95,0,2.66,2.66,0,0,0,11,.43a1.77,1.77,0,0,0-1,1.12,2.73,2.73,0,0,0-.21.59,1.34,1.34,0,0,0,1,1.63h0c-2.75,0-5.52,0-8.26.21a.14.14,0,0,0-.12.08,1.56,1.56,0,0,0-.8,1.62c0,.6.61,1.55,1.33,1.21l1.67,0a9.14,9.14,0,0,1-.42,1.24c-.29,1-.57,1.93-.85,2.88C2.66,13.32,1.67,15.52,1,17.8l-.67.1a.17.17,0,0,0,0,.32h0C-.9,21.11,1.48,23,4.18,23.34S11.4,21,9.69,17.89a.3.3,0,0,0-.39-.14l-.11,0-.5-.09A26.75,26.75,0,0,1,7.58,13.5,38.6,38.6,0,0,0,5.37,6.93C7.58,7,9.78,7,12,7s4.34.21,6.51.13a29.78,29.78,0,0,0-1.11,4c-.56,2.14-1.39,4.19-1.93,6.33l-.87.13c-.24,0-.15.37.05.4l.17,0c-.47,2.91,2.73,5.72,5.58,5.3C22.49,23,27.11,20.16,25.12,17.51ZM12.29,1.27h.05a1.15,1.15,0,0,1,.54.68.69.69,0,0,1-.42.83,1.82,1.82,0,0,1-1.23-.66C10.88,1.61,11.92,1.28,12.29,1.27ZM.7,19.59a51.09,51.09,0,0,0,8.37.06C8.28,23.51.82,23.39.7,19.59Zm8.41-1.15a4.26,4.26,0,0,1,0,.71,50.56,50.56,0,0,0-8.42.06,3.8,3.8,0,0,1,.14-.76.24.24,0,0,0,0-.14l.1,0a.3.3,0,0,0,.44,0c1.12.12,2.25.12,3.38.15A18.54,18.54,0,0,0,9.11,18.44Zm-1.91-4a10.68,10.68,0,0,0,.67,3c-1-.06-2.09,0-3.1.08s-2,0-3,.11A25.49,25.49,0,0,0,3,14.13c.35-1.07.71-2.13,1-3.21s.58-2.1.83-3.17A3.07,3.07,0,0,0,5,7.08,43.56,43.56,0,0,1,7.2,14.48ZM12.61,6q-4.94,0-9.87.12a.39.39,0,0,0-.2.06.9.9,0,0,1-.23-.54,1.49,1.49,0,0,1,.37-1.23.18.18,0,0,0,0-.09c3,.24,6,.19,8.93.2,3.18,0,6.39.14,9.57,0,0,.26,0,.51,0,.78a1.48,1.48,0,0,1-.1.5.81.81,0,0,1-.23.29C18.22,5.61,15.28,5.95,12.61,6Zm5.09,6.49c.55-1.67.73-3.47,1.44-5.07a49.78,49.78,0,0,1,2.47,5.08c.7,1.64,1.23,3.38,2,5a60.39,60.39,0,0,0-7.83-.06C16.46,15.77,17.14,14.13,17.7,12.44Zm5.95,8.27a6.63,6.63,0,0,1-2.87,1.65c-2.33.71-4.47-1.08-5.34-3.15,3,.07,6,.16,9.05.18A3.47,3.47,0,0,1,23.65,20.71Zm1-1.93c-3.09,0-6.18-.07-9.27,0h-.07a4.81,4.81,0,0,1-.19-.77,88.88,88.88,0,0,0,9.55.44C24.63,18.56,24.62,18.67,24.61,18.77Z"/></g></g></svg>