<svg xmlns="http://www.w3.org/2000/svg" viewBox="0 0 540.76 244.81"><defs><style>.cls-1{fill:#929497;}.cls-2{fill:#789bf8;}.cls-3{font-size:31.78px;fill:#fff;font-family:Montserrat-Regular, Montserrat;}.cls-4{letter-spacing:-0.05em;}.cls-5{letter-spacing:-0.02em;}.cls-6{letter-spacing:-0.02em;}.cls-7{letter-spacing:-0.07em;}.cls-8{letter-spacing:-0.02em;}.cls-9{letter-spacing:0em;}.cls-10{letter-spacing:-0.01em;}.cls-11{letter-spacing:-0.02em;}</style></defs><title>spa-text-reminder_1</title><g id="Layer_2" data-name="Layer 2"><g id="Layer_1-2" data-name="Layer 1"><path class="cls-1" d="M183.27,163.73a.82.82,0,0,1-.82.81h-2.72a.82.82,0,0,1-.82-.81h0a.82.82,0,0,1,.82-.82h2.72a.82.82,0,0,1,.82.82Z"/><path class="cls-2" d="M14.41,218.42c0-20,0-28,0-28h0q0-1.4,0-2.82V57c0-31.48,17.44-57,39-57H501.79c21.52,0,39,25.52,39,57V187.65c0,31.48-17.45,57-39,57H53.37c-9,0-17.22-4.44-23.81-11.89h0S18,246.46,0,244.64C0,244.64,14.41,238.47,14.41,218.42Z"/><text class="cls-3" transform="translate(45.23 45.44)"><tspan class="cls-4">Y</tspan><tspan x="18.53" y="0">ou h</tspan><tspan class="cls-5" x="88.61" y="0">a</tspan><tspan class="cls-6" x="106.72" y="0">v</tspan><tspan x="122.77" y="0">e a Lash Appointment</tspan><tspan x="0" y="43.37">with Raquel </tspan><tspan class="cls-7" x="200.1" y="43.37">T</tspan><tspan x="216.28" y="43.37">omorr</tspan><tspan class="cls-8" x="314.2" y="43.37">o</tspan><tspan class="cls-9" x="333.43" y="43.37">w, Feb 15</tspan><tspan x="0" y="86.75">at 11:30! Please reply “</tspan><tspan class="cls-10" x="331.64" y="86.75">C</tspan><tspan x="353.32" y="86.75">onfirm” </tspan><tspan x="0" y="130.12">or “Can</tspan><tspan class="cls-11" x="111.84" y="130.12">c</tspan><tspan x="129.1" y="130.12">el”. Questions? Call us</tspan><tspan x="0" y="173.49">at 9498873031 </tspan></text></g></g></svg>