<svg xmlns="http://www.w3.org/2000/svg" viewBox="0 0 519.76 112.81"><defs><style>.cls-1{fill:#5d9cf9;}.cls-2{font-size:31.78px;fill:#fff;font-family:Montserrat-Regular, Montserrat;}.cls-3{letter-spacing:-0.05em;}.cls-4{letter-spacing:-0.02em;}.cls-5{letter-spacing:0em;}.cls-6{letter-spacing:-0.01em;}.cls-7{letter-spacing:-0.01em;}.cls-8{letter-spacing:-0.01em;}.cls-9{letter-spacing:0.03em;}.cls-10{letter-spacing:-0.02em;}.cls-11{letter-spacing:-0.01em;}</style></defs><title>spa-auto</title><g id="Layer_2" data-name="Layer 2"><g id="Layer_1-2" data-name="Layer 1"><path class="cls-1" d="M519.76,56.33C519.52,25.16,502.85,0,482.31,0H51.44C30.75,0,14,25.52,14,57V67h-.12c0,4.47,0,10.82,0,19.42,0,20-13.85,26.22-13.85,26.22,17.34,1.82,28.43-11.88,28.43-11.88h0c6.33,7.45,14.27,11.89,22.89,11.89H482.48c17.52,0,32.22-18.3,36.32-43a2.33,2.33,0,0,0,0-.4l.89-11.57C519.74,57.21,519.76,56.77,519.76,56.33Z"/><text class="cls-2" transform="translate(47.32 44.79)"><tspan class="cls-3">T</tspan><tspan x="16.72" y="0">hank </tspan><tspan class="cls-4" x="104.78" y="0">y</tspan><tspan class="cls-5" x="121.03" y="0">ou </tspan><tspan class="cls-6" x="169.84" y="0">f</tspan><tspan x="180.43" y="0">or </tspan><tspan class="cls-7" x="221.01" y="0">C</tspan><tspan x="242.69" y="0">ONFIRMING.</tspan><tspan x="0" y="43.37">I look </tspan><tspan class="cls-8" x="94.01" y="43.37">f</tspan><tspan x="104.59" y="43.37">o</tspan><tspan class="cls-9" x="124.46" y="43.37">r</tspan><tspan class="cls-10" x="137.81" y="43.37">w</tspan><tspan x="165.71" y="43.37">ard </tspan><tspan class="cls-11" x="226.73" y="43.37">t</tspan><tspan x="239.48" y="43.37">o seeing </tspan><tspan class="cls-4" x="378.49" y="43.37">y</tspan><tspan x="394.73" y="43.37">ou!</tspan></text></g></g></svg>